<svg xmlns="http://www.w3.org/2000/svg" viewBox="0 0 521.23 337.06"><defs><style>.cls-1{fill:#fff;}</style></defs><g id="Layer_2" data-name="Layer 2"><g id="Layer_1-2" data-name="Layer 1"><path class="cls-1" d="M240.2,202.26H159.71V151.57H296.87c.08,1.29.2,2.41.2,3.53,0,33.83,0,67.66.12,101.48a20.07,20.07,0,0,1-4.43,13.31c-27.59,34.86-62.54,57.84-106.78,65-70.55,11.43-138.17-22.82-170.55-92.39C3.36,216.59-1.15,189.48.24,161.1c1.91-38.85,15.27-73.23,40.3-102.86S97.19,9.82,135.45,2.85C195.27-8,244.05,12.85,285.11,55.5c.45.47.82,1,1.62,2.06l-42,38.62c-6-5.48-11.73-11.21-18-16.34C205,61.91,180,53.45,151.81,56.08c-26.41,2.48-47.28,15.6-64.09,35.63C67,116.39,59.26,145.36,60.37,177c1.07,30.42,11.42,57.17,33.43,78.71,15,14.66,33.22,22.78,54,25.33,32.37,4,60.76-4.65,85.18-26.38,4.47-4,7.34-8.28,7.25-14.49C240.08,227.67,240.2,215.19,240.2,202.26Z"/><path class="cls-1" d="M358.6,173.8c0-12.63-.11-24.45.11-36.26a8.35,8.35,0,0,1,2.52-5q34.88-35.44,69.93-70.72a35.49,35.49,0,0,1,3.94-3l-.66-1.11H312.86V4.47h191v5.86c0,12.67.12,25.33-.16,38a11.14,11.14,0,0,1-2.82,6.89c-22.29,23.17-44.76,46.18-67.17,69.23-.78.8-1.51,1.65-2.31,2.54,8.61,1.82,17.15,2.91,25.23,5.47,36,11.41,56.57,36.89,62.77,73.4,6.32,37.27-3.61,70.41-30.81,97.17-20.31,20-45.06,30-73.9,31.24-45.2,2-81.37-15.58-111.41-48a2.64,2.64,0,0,1-.4-.75L339,249c10.77,8,20.71,16.72,31.84,23.45,25.37,15.35,55.47,12.6,76.28-6.33,16-14.56,20.51-33.27,16-53.71-4.05-18.3-16.09-30.54-33.78-36.88a30.05,30.05,0,0,0-9.75-1.59c-18.5-.18-37-.13-55.48-.16C362.43,173.79,360.81,173.8,358.6,173.8Z"/></g></g></svg>