<svg xmlns="http://www.w3.org/2000/svg" viewBox="0 0 535.03 456.32"><g id="Layer_2" data-name="Layer 2"><g id="Layer_1-2" data-name="Layer 1"><path d="M250.13,202.26H169.64V151.57H306.81c.08,1.29.2,2.41.2,3.53,0,33.83,0,67.66.12,101.48a20.13,20.13,0,0,1-4.43,13.31c-27.6,34.86-62.55,57.84-106.78,65-70.55,11.43-138.17-22.82-170.56-92.39-12.06-25.92-16.57-53-15.18-81.41,1.9-38.85,15.26-73.23,40.3-102.86S107.13,9.82,145.39,2.85C205.2-8,254,12.85,295.05,55.5c.45.47.81,1,1.62,2.06-14,12.84-27.91,25.64-42,38.62-6-5.48-11.74-11.21-18-16.34-21.76-17.93-46.76-26.39-74.94-23.76-26.41,2.48-47.27,15.6-64.09,35.63C76.92,116.39,69.19,145.36,70.31,177c1.07,30.42,11.42,57.17,33.43,78.71,15,14.66,33.22,22.78,54,25.33,32.37,4,60.75-4.65,85.18-26.38,4.47-4,7.33-8.28,7.25-14.49C250,227.67,250.13,215.19,250.13,202.26Z"/><path d="M368.53,173.8c0-12.63-.1-24.45.12-36.26a8.39,8.39,0,0,1,2.51-5q34.89-35.44,69.94-70.72a35.49,35.49,0,0,1,3.94-3l-.66-1.11H322.79V4.47h191v5.86c0,12.67.12,25.33-.16,38a11.14,11.14,0,0,1-2.82,6.89c-22.29,23.17-44.76,46.18-67.18,69.23-.78.8-1.5,1.65-2.31,2.54,8.62,1.82,17.16,2.91,25.24,5.47,36,11.41,56.56,36.89,62.76,73.4,6.33,37.27-3.6,70.41-30.8,97.17-20.31,20-45.07,30-73.91,31.24-45.19,2-81.36-15.58-111.41-48a2.85,2.85,0,0,1-.39-.75L348.89,249c10.78,8,20.72,16.72,31.85,23.45,25.37,15.35,55.47,12.6,76.28-6.33,16-14.56,20.51-33.27,16-53.71-4.05-18.3-16.09-30.54-33.78-36.88a30.11,30.11,0,0,0-9.76-1.59c-18.49-.18-37-.13-55.48-.16C372.37,173.79,370.74,173.8,368.53,173.8Z"/><path d="M343.27,408c7.58,0,15.05-.46,22.42.16,5.33.44,9,4,10.32,9.45,1.24,5.26-.52,9.42-4.77,12.09,2.09,2.26,4.84,4.15,5.93,6.74a16.87,16.87,0,0,1,.84,9.16c-1.05,5.68-6.23,9.23-13.53,9.54-7,.3-13.92.06-21.21.06Zm9.4,27v12c3.38,0,6.5.06,9.61,0,3.6-.08,6-1.55,6.19-5.55.16-4.16-2.19-6.12-6-6.44C359.38,434.78,356.23,435,352.67,435Zm-.08-6.73c4.91-1.38,9.25-2.3,13.25-4,.71-.3.63-5.42-.13-5.73-4-1.62-8.37-2.41-13.12-3.63Z"/><path d="M453,456.16c-14.21-.17-24.49-10.5-24.52-24.64a25,25,0,0,1,49.9.28C478.27,445.85,467.36,456.33,453,456.16ZM438.38,431.8c0,9.62,6.23,16.19,15.22,16.1,8.68-.08,14.95-6.75,15-15.93,0-9.91-6.1-16.29-15.56-16.2C444.26,415.85,438.36,422.31,438.38,431.8Z"/><path d="M525.12,436.2H512.54v-7.94h22c2.33,13-4.28,24.16-16,27.24A23.88,23.88,0,0,1,490,440.68c-4.61-12.59.82-26.43,12.4-31.63,11.8-5.3,24.34-1.06,30.76,10.48l-6.66,4.28c-3.38-4.57-7.44-8.65-13.6-8.32a18.76,18.76,0,0,0-8.81,2.78c-6,3.87-7.84,12.72-4.79,20.19,2.68,6.55,8.85,10.31,15.37,9.36A12,12,0,0,0,525.12,436.2Z"/><path d="M127.3,437.77,139,454.93c-8.33,1.93-10,1.31-14.24-5.37-2-3.08-3.77-6.28-5.93-9.21-.89-1.21-2.54-1.87-4.85-3.48v18.51h-9.35V408c7,0,13.91-.49,20.77.14,6.42.59,11.24,6.18,12,12.3C138.47,429,135.88,433.58,127.3,437.77Zm-13.09-21.61v14.42c4.93-.12,10.17,1.36,12.87-3.63,1.1-2.05,1.09-5.87-.14-7.78C124,414.54,118.86,416,114.21,416.16Z"/><path d="M93.19,455.64a44.13,44.13,0,0,0-5.73,0c-3.3.46-4.94-.94-5.47-4.11-.61-3.7-2.68-5.22-6.57-4.72a36.38,36.38,0,0,1-9,0c-5.11-.61-8.66.4-9.49,6.3-.14,1-2.22,2.14-3.55,2.4-2.08.4-4.3.1-7,.1,4.14-11.2,8.19-22.17,12.26-33.13,1.26-3.42,2.83-6.76,3.77-10.26,1.12-4.18,3.25-5.65,7.73-5.5,3.9.14,5.78,1.1,7.1,4.92C82.3,426.24,87.72,440.64,93.19,455.64ZM77.36,438.52,69.8,417.64l-7.51,20.88Z"/><path d="M178.79,407.58h29.79v7.91H187.8v11.09h20.42v7.85H187.75v12.71h21.14v8.11h-30.1Z"/><path d="M22.88,443c3.81-10.68,7.21-20.2,10.62-29.7,2.81-7.82,2.82-7.82,12.18-6.72-2.78,7.53-5.51,14.95-8.27,22.36-2.95,7.92-5.83,15.87-9,23.7-.53,1.29-2.38,2.83-3.66,2.86-2.41.06-6.53-.22-7-1.51C11.49,438.34,5.8,422.45,0,406.72c.46-.31.58-.46.72-.47,8.83-.51,8.82-.51,11.76,7.72C15.81,423.31,19.16,432.65,22.88,443Z"/><path d="M290.93,455.43h-9.05a6.68,6.68,0,0,1-.44-2.28c1.93-11.93-2.62-22-8.75-31.73-3-4.71-5.34-9.8-8.05-14.86,9.67-1.19,9.67-1.19,13.7,6.7l7.76,15.19c2.66-5.49,5-10.37,7.38-15.23,3.8-7.77,3.81-7.76,13.65-6.75-4,7.75-7.66,15.55-12.05,22.89a30.07,30.07,0,0,0-4.18,18.52C291.09,450.31,290.93,452.77,290.93,455.43Z"/><path d="M256,415.84H242.56v39.67h-9V416.07H219.79v-8.4H256Z"/><path d="M403.86,446.89h17.33V455H394.7V406.77h9.16Z"/><path d="M160.77,455.4h-9V406.6h9Z"/></g></g></svg>